<svg width="128" height="128" viewBox="0 0 128 128" fill="none" xmlns="http://www.w3.org/2000/svg">
<g clip-path="url(#clip0_77_50)">
<path d="M48 1.59999C36.8 4.49999 28.1 9.69999 18.9 18.9C5.5 32.3 0 45.5 0 64C0 74.3 1.7 82.8 5.3 90C7.7 94.8 10.2 96 13.9 94C16.7 92.6 16.6 89.7 13.5 80.6C8.6 66 10.7 49 18.9 36.1C22.8 30.1 32 21.2 38 17.8C50.8 10.4 66.7 8.79999 80.9 13.6C89.4 16.5 93.4 16.3 94.5 13C96.1 7.89999 93.1 5.39999 80.9 1.99999C72.1 -0.400008 56.4 -0.600008 48 1.59999Z" fill="#151515"/>
<path d="M60.2 60.3C-1.89999 122.4 -2.49999 123.1 1.20001 126.8C1.90001 127.5 3.80001 128 5.40001 128C8.10001 128 15.4 121 68.2 68.2C121 15.4 128 8.1 128 5.4C128 3.8 127.5 1.9 126.8 1.2C123.1 -2.5 122.4 -1.9 60.2 60.3Z" fill="#151515"/>
<path d="M114.2 34.6C111.4 36.5 111.4 38.3 114.6 47.7C116.9 54.6 117.2 56.6 116.8 66C116.5 73.6 115.7 78 114.1 82.1C106.9 100.6 90.5 113.8 70.6 117C63 118.2 55.2 117.3 44.9 113.9C37.5 111.5 35.5 111.8 33.8 115.4C32 119.4 34.7 122.3 42.7 125C52 128.2 70.6 128.9 80 126.5C102.8 120.6 120.8 102.3 126.6 79C129.1 69.3 128.1 51.8 124.7 42.5C121.2 33.3 118.7 31.4 114.2 34.6Z" fill="#151515"/>
</g>
<defs>
<clipPath id="clip0_77_50">
<rect width="128" height="128" fill="white"/>
</clipPath>
</defs>
</svg>