<svg width="25" height="30" viewBox="0 0 25 30" fill="none" xmlns="http://www.w3.org/2000/svg">
<path d="M13.75 25C15.407 24.998 16.9956 24.3389 18.1672 23.1672C19.3389 21.9956 19.998 20.407 20 18.75V7.80377C20.0019 7.14672 19.8735 6.49582 19.622 5.88879C19.3705 5.28177 19.001 4.7307 18.535 4.26752L15.7325 1.46502C15.2693 0.998989 14.7183 0.629525 14.1112 0.378047C13.5042 0.126569 12.8533 -0.00192244 12.1962 2.1737e-05H6.25C4.59301 0.00200656 3.00445 0.661124 1.83277 1.8328C0.661102 3.00447 0.00198482 4.59303 0 6.25002V18.75C0.00198482 20.407 0.661102 21.9956 1.83277 23.1672C3.00445 24.3389 4.59301 24.998 6.25 25H13.75ZM2.5 18.75V6.25002C2.5 5.25546 2.89509 4.30163 3.59835 3.59837C4.30161 2.89511 5.25544 2.50002 6.25 2.50002C6.25 2.50002 12.3987 2.51752 12.5 2.53002V5.00002C12.5 5.66306 12.7634 6.29895 13.2322 6.76779C13.7011 7.23663 14.337 7.50002 15 7.50002H17.47C17.4825 7.60127 17.5 18.75 17.5 18.75C17.5 19.7446 17.1049 20.6984 16.4017 21.4017C15.6984 22.1049 14.7446 22.5 13.75 22.5H6.25C5.25544 22.5 4.30161 22.1049 3.59835 21.4017C2.89509 20.6984 2.5 19.7446 2.5 18.75ZM25 10V23.75C24.998 25.407 24.3389 26.9956 23.1672 28.1672C21.9956 29.3389 20.407 29.998 18.75 30H7.5C7.16848 30 6.85054 29.8683 6.61612 29.6339C6.3817 29.3995 6.25 29.0815 6.25 28.75C6.25 28.4185 6.3817 28.1006 6.61612 27.8661C6.85054 27.6317 7.16848 27.5 7.5 27.5H18.75C19.7446 27.5 20.6984 27.1049 21.4017 26.4017C22.1049 25.6984 22.5 24.7446 22.5 23.75V10C22.5 9.6685 22.6317 9.35056 22.8661 9.11614C23.1005 8.88172 23.4185 8.75002 23.75 8.75002C24.0815 8.75002 24.3995 8.88172 24.6339 9.11614C24.8683 9.35056 25 9.6685 25 10Z" fill=" grey"/>
</svg>
