     <svg width="29" height="23" viewBox="0 0 29 23" fill="none" xmlns="http://www.w3.org/2000/svg">
                                <path opacity="0.5"
                                    d="M1.20129 20.582C1.06881 20.7242 0.996689 20.9122 1.00012 21.1065C1.00355 21.3008 1.08226 21.4862 1.21967 21.6236C1.35708 21.761 1.54247 21.8397 1.73677 21.8432C1.93107 21.8466 2.11912 21.7745 2.26129 21.642L1.20129 20.582ZM6.91529 16.984C7.05185 16.8425 7.12735 16.653 7.12555 16.4563C7.12375 16.2597 7.04479 16.0716 6.90566 15.9326C6.76654 15.7936 6.57839 15.7148 6.38174 15.7132C6.1851 15.7116 5.99568 15.7873 5.85429 15.924L6.91529 16.984ZM2.26129 21.642L6.91529 16.984L5.85429 15.924L1.19929 20.582L2.26129 21.642Z"
                                    fill="#CCCCCC" />
                                <path
                                    d="M20.6166 5.23025L23.6986 8.31625L24.7596 7.25625L21.6766 4.17025L20.6166 5.23025ZM14.4256 18.6502L10.3086 14.5293L9.24864 15.5903L13.3646 19.7092L14.4256 18.6502ZM22.4596 14.0433L20.5426 14.7633L21.0706 16.1673L22.9876 15.4483L22.4596 14.0433ZM14.1926 8.39025L14.8876 6.49525L13.4796 5.97825L12.7846 7.87425L14.1926 8.39025ZM11.2006 11.1463C11.9126 10.9503 12.4536 10.8123 12.8966 10.4943L12.0206 9.27625C11.8476 9.40125 11.6226 9.47425 10.8026 9.70025L11.2006 11.1463ZM12.7846 7.87425C12.4916 8.67425 12.3996 8.89225 12.2616 9.05425L13.4036 10.0273C13.7566 9.61225 13.9376 9.08325 14.1926 8.39025L12.7846 7.87425ZM12.8966 10.4943C13.0836 10.3593 13.2536 10.2023 13.4036 10.0273L12.2616 9.05425C12.1905 9.13765 12.1096 9.21219 12.0206 9.27625L12.8966 10.4943ZM20.5426 14.7633C19.8536 15.0233 19.3286 15.2073 18.9166 15.5633L19.8986 16.6993C20.0586 16.5592 20.2756 16.4653 21.0706 16.1673L20.5426 14.7633ZM19.2606 18.1502C19.4856 17.3312 19.5586 17.1073 19.6826 16.9343L18.4646 16.0593C18.1466 16.5023 18.0096 17.0433 17.8146 17.7533L19.2606 18.1502ZM18.9166 15.5643C18.7466 15.7103 18.5946 15.8773 18.4646 16.0593L19.6826 16.9343C19.7456 16.8473 19.8176 16.7683 19.8986 16.6993L18.9166 15.5643ZM10.3086 14.5283C9.66264 13.8813 9.22464 13.4413 8.94064 13.0843C8.65464 12.7253 8.62564 12.5703 8.62564 12.5013L7.12564 12.5103C7.12864 13.0923 7.41764 13.5803 7.76664 14.0183C8.11664 14.4583 8.62764 14.9683 9.24764 15.5883L10.3086 14.5283ZM10.8026 9.70025C9.95764 9.93425 9.26064 10.1243 8.73964 10.3343C8.21964 10.5423 7.72764 10.8243 7.43764 11.3283L8.73764 12.0763C8.77164 12.0163 8.87364 11.8963 9.29764 11.7263C9.72164 11.5563 10.3196 11.3893 11.2006 11.1463L10.8026 9.70025ZM8.62564 12.5003C8.62446 12.3516 8.66277 12.2053 8.73664 12.0763L7.43764 11.3283C7.23109 11.6877 7.12276 12.0957 7.12564 12.5103L8.62564 12.5003ZM13.3646 19.7092C13.9886 20.3333 14.5016 20.8493 14.9436 21.2003C15.3836 21.5522 15.8746 21.8423 16.4606 21.8433L16.4626 20.3433C16.3936 20.3433 16.2386 20.3143 15.8776 20.0273C15.5176 19.7413 15.0756 19.3013 14.4256 18.6502L13.3646 19.7092ZM17.8146 17.7533C17.5696 18.6413 17.4026 19.2423 17.2316 19.6693C17.0596 20.0972 16.9386 20.1992 16.8786 20.2332L17.6216 21.5362C18.1316 21.2462 18.4136 20.7502 18.6236 20.2272C18.8336 19.7032 19.0256 19.0022 19.2606 18.1502L17.8146 17.7533ZM16.4606 21.8433C16.8676 21.8433 17.2676 21.7382 17.6216 21.5362L16.8786 20.2332C16.752 20.3056 16.6085 20.3436 16.4626 20.3433L16.4606 21.8433ZM23.6986 8.31625C24.7626 9.38025 25.4976 10.1193 25.9476 10.7293C26.3916 11.3273 26.4426 11.6463 26.3886 11.8963L27.8546 12.2133C28.0446 11.3353 27.6946 10.5663 27.1536 9.83625C26.6206 9.11625 25.7876 8.28525 24.7586 7.25625L23.6986 8.31625ZM22.9876 15.4463C24.3486 14.9353 25.4506 14.5233 26.2336 14.0883C27.0286 13.6483 27.6646 13.0923 27.8546 12.2133L26.3886 11.8963C26.3346 12.1463 26.1566 12.4163 25.5056 12.7763C24.8426 13.1453 23.8676 13.5133 22.4596 14.0423L22.9876 15.4463ZM21.6766 4.17025C20.6406 3.13325 19.8046 2.29425 19.0816 1.75625C18.3476 1.21225 17.5736 0.85925 16.6916 1.05425L17.0156 2.51825C17.2656 2.46325 17.5846 2.51325 18.1876 2.96125C18.7996 3.41625 19.5446 4.15825 20.6156 5.23125L21.6766 4.17025ZM14.8876 6.49525C15.4096 5.07225 15.7726 4.08425 16.1376 3.41425C16.4976 2.75425 16.7656 2.57425 17.0156 2.51825L16.6926 1.05425C15.8106 1.24825 15.2576 1.89425 14.8206 2.69625C14.3896 3.48825 13.9836 4.60225 13.4796 5.97825L14.8876 6.49525Z"
                                    fill="#CCCCCC" />
                            </svg>